<svg width="52.301" height="55.502" xmlns="http://www.w3.org/2000/svg"><path d="M52.301 6.101v42.3a6.543 6.543 0 0 1-.393 2.302 5.848 5.848 0 0 1-1.307 2.048 5.694 5.694 0 0 1-4.059 1.746 7.542 7.542 0 0 1-.241.004 6.324 6.324 0 0 1-2.206-.372 5.598 5.598 0 0 1-2.094-1.378q-1.7-1.75-1.7-4.35v-4.9l2.2.9a3.126 3.126 0 0 1-.166.959q-.316.977-1.234 2.191-1.261 1.666-3.332 3.291a27.065 27.065 0 0 1-.468.359q-2.4 1.8-5.65 3.05a18.973 18.973 0 0 1-5.645 1.206 22.213 22.213 0 0 1-1.405.044q-6.9 0-12.5-3.55a24.826 24.826 0 0 1-8.541-9.22 29.417 29.417 0 0 1-.309-.58 28.665 28.665 0 0 1-2.933-9.468 36.466 36.466 0 0 1-.317-4.882 35.098 35.098 0 0 1 .809-7.698 27.719 27.719 0 0 1 2.441-6.752 26.332 26.332 0 0 1 5.225-7.032 24.109 24.109 0 0 1 3.525-2.768q5.5-3.55 12.2-3.55a24.817 24.817 0 0 1 4.98.483 20.931 20.931 0 0 1 2.92.817 26.003 26.003 0 0 1 3.749 1.684 21.006 21.006 0 0 1 2.501 1.616 24.339 24.339 0 0 1 1.955 1.633q.958.895 1.68 1.8a13.271 13.271 0 0 1 .465.617 12.397 12.397 0 0 1 .684 1.072q.634 1.128.743 2.019a2.964 2.964 0 0 1 .023.359l-3.6 1.3v-7.3a6.543 6.543 0 0 1 .392-2.302 5.848 5.848 0 0 1 1.308-2.048A5.694 5.694 0 0 1 46.059.005a7.542 7.542 0 0 1 .242-.004q2.6 0 4.3 1.7a5.728 5.728 0 0 1 1.649 3.501 7.825 7.825 0 0 1 .051.899Zm-26.2 38.4a14.862 14.862 0 0 0 4.304-.603 12.674 12.674 0 0 0 3.396-1.597 14.738 14.738 0 0 0 4.913-5.531 17.517 17.517 0 0 0 .237-.469 18.46 18.46 0 0 0 1.761-6.485 22.485 22.485 0 0 0 .089-2.015 21.343 21.343 0 0 0-.554-4.951 17.627 17.627 0 0 0-1.296-3.649 15.342 15.342 0 0 0-3.23-4.469 14.364 14.364 0 0 0-1.92-1.531 13.123 13.123 0 0 0-6.155-2.129 16.5 16.5 0 0 0-1.545-.071 14.256 14.256 0 0 0-4.624.73 12.756 12.756 0 0 0-2.976 1.47 14.738 14.738 0 0 0-4.914 5.531 17.517 17.517 0 0 0-.236.469 18.346 18.346 0 0 0-1.704 5.979 22.904 22.904 0 0 0-.146 2.621 20.583 20.583 0 0 0 .647 5.248 17.663 17.663 0 0 0 1.203 3.252 15.342 15.342 0 0 0 3.229 4.469 14.364 14.364 0 0 0 1.921 1.531 13.157 13.157 0 0 0 6.671 2.174 16.198 16.198 0 0 0 .929.026Z" stroke="none" stroke-linecap="round" font-size="12" stroke-width="0" style="stroke:#000;stroke-width:0;fill:#000"/></svg>