<svg width="24" height="24" xmlns="http://www.w3.org/2000/svg" preserveAspectRatio="xMinYMin meet"><g class="layer"><path d="M16.8 16.02c1.31 0 2.38 1.07 2.38 2.38 0 1.31-1.07 2.38-2.38 2.38-1.31 0-2.38-1.07-2.38-2.38 0-.21.03-.4.09-.6a2.36 2.36 0 0 1 2.29-1.78v-.01zM6.55 10.08c.67 0 1.27.28 1.7.72.28.29.47.64.58 1.03.05.2.1.4.1.62 0 .24-.05.47-.11.68a2.365 2.365 0 0 1-2.26 1.7c-1.31 0-2.38-1.07-2.38-2.38 0-1.31 1.07-2.38 2.38-2.38l-.01.01zM16.8 4.19c1.31 0 2.38 1.07 2.38 2.38 0 1.31-1.07 2.38-2.38 2.38-.66 0-1.27-.28-1.7-.72a2.3 2.3 0 0 1-.58-1.03c-.05-.2-.1-.4-.1-.62 0-1.31 1.07-2.38 2.38-2.38l-.01-.01zm0 10.64c-1.11 0-2.1.52-2.76 1.33l-4.18-2.41c.16-.4.25-.83.25-1.29 0-.43-.09-.84-.23-1.22l4.18-2.41c.66.79 1.63 1.31 2.74 1.31 1.96 0 3.56-1.6 3.56-3.56s-1.6-3.56-3.56-3.56-3.56 1.6-3.56 3.56c0 .43.09.85.23 1.23L9.3 10.22c-.66-.79-1.63-1.31-2.74-1.31C4.6 8.91 3 10.51 3 12.47s1.6 3.56 3.56 3.56c1.08 0 2.05-.49 2.7-1.26l4.21 2.43c-.14.38-.23.78-.23 1.2 0 1.96 1.6 3.56 3.56 3.56s3.56-1.6 3.56-3.56-1.6-3.56-3.56-3.56" fill="#fff" fill-rule="evenodd"/></g></svg>